# xmcd
#
# Track frame offsets: 
#        150
#        16917
#        35097
#        55090
#        69042
#        84065
#        99732
#        127892
#        141080
#        159937
#        180157
#
# Disc length: 2622 seconds
#
# Revision: 1
# Processed by: cddbd v1.5.2PL0 Copyright (c) Steve Scherf et al.
# Submitted via: ExactAudioCopy v0.95a4
#
DISCID=770a3c0b
DTITLE=Frank Frost - Deep Blues
DYEAR=1998
DGENRE=Blues
TTITLE0=Nothin' I Wouldn't Do For You
TTITLE1=Sweet Woman
TTITLE2=Born To Be Wise
TTITLE3=Pocket Full Of Shells
TTITLE4=My Baby
TTITLE5=Ride With Your Daddy Tonight
TTITLE6=Repo Man Blues
TTITLE7=Pocket Full Of Money
TTITLE8=Janie On My Mind
TTITLE9=Somebody Tell Me
TTITLE10=Deep Blues
EXTD=YEAR: 1998
EXTT0=
EXTT1=
EXTT2=
EXTT3=
EXTT4=
EXTT5=
EXTT6=
EXTT7=
EXTT8=
EXTT9=
EXTT10=
PLAYORDER=
